<svg width="60" height="45" viewBox="0 0 60 45" fill="none" xmlns="http://www.w3.org/2000/svg">
<path d="M1.5083 23.9109C1.80258 25.4244 2.55071 26.4076 3.13062 27.7849C3.52546 28.7227 4.26365 29.4488 4.67475 30.3689C5.11872 31.3625 5.78353 32.5297 6.40261 33.4141C6.93333 34.1723 7.2811 34.8907 7.95065 35.5603C9.13425 36.7439 10.0297 38.1543 11.2187 39.3209C12.9472 41.0168 15.8739 43.2293 18.3921 43.0894C19.201 43.0445 20.0966 43.2952 20.8901 43.1754C21.5707 43.0727 22.3973 43.0383 23.0792 43.1559C24.2 43.3491 25.416 43.1547 26.488 43.3865C27.0667 43.5116 27.6965 43.3288 28.2824 43.4373C29.0419 43.578 29.9319 43.6132 30.7061 43.6132C33.2397 43.6132 35.7668 43.5979 38.2938 43.277C39.6629 43.1032 41.0196 43.5571 42.375 43.3161C43.6472 43.09 45.3418 43.3236 46.5383 42.8001C48.0088 42.1568 49.4718 41.1449 50.6078 40.009C51.1775 39.4392 51.6098 38.7586 51.9955 38.0544C52.5021 37.1292 52.7842 36.1314 53.2934 35.2085C55.0692 31.9899 56.0814 28.4073 57.5192 25.0524C57.8581 24.2617 58.4151 23.6211 58.821 22.8906C58.9236 22.7058 58.9702 22.4698 59.1376 22.2925C59.7645 21.6288 58.5637 21.5582 58.0118 21.3074" stroke="#00ADB5" stroke-opacity="0.2" stroke-width="1.28667" stroke-linecap="round" stroke-linejoin="round"/>
<path d="M1.22681 24.0517C2.4843 22.4064 3.55104 21.1979 5.37837 20.2676C6.90859 19.4886 8.4954 18.5633 9.87785 17.5468C12.0024 15.9847 14.9261 15.2885 17.5125 14.8182C20.3277 14.3064 23.0987 13.708 25.9642 13.708C26.8507 13.708 27.728 13.9749 28.6146 13.9895C29.6761 14.0069 30.7402 14.0403 31.7967 14.1302C33.4182 14.2682 35.0825 14.2356 36.7066 14.2709C38.9725 14.3202 41.1415 15.4931 43.407 15.6743C44.7546 15.7821 46.3262 15.9837 47.6367 16.3506C48.1276 16.488 48.6875 16.5815 49.1457 16.8041C49.7157 17.0809 50.1153 17.5493 50.639 17.8752C52.3295 18.9271 54.2193 19.4218 56.0454 20.2207C56.6051 20.4656 57.5678 20.8853 58.1877 20.8853C59.041 20.8853 58.9969 22.4605 58.9969 20.8853" stroke="#00ADB5" stroke-opacity="0.2" stroke-width="1.28667" stroke-linecap="round" stroke-linejoin="round"/>
<path d="M58.856 21.8704C57.8124 23.2691 57.0686 23.8016 55.588 24.6185C54.4256 25.2598 53.138 25.7134 51.8351 25.9516C50.6194 26.1738 49.2912 26.3494 48.0589 26.448C47.033 26.5301 45.9869 26.4108 44.9393 26.5301C42.5703 26.8 40.1799 27.4107 37.895 28.0782C34.6329 29.0311 31.483 29.1308 28.1142 29.3135C24.4364 29.5129 20.7487 29.2318 17.145 28.4847C15.9297 28.2328 14.6449 28.459 13.4078 28.4104C12.0452 28.357 10.7103 27.9816 9.42821 27.5387C8.88862 27.3523 8.39133 27.0656 7.82544 26.9367C7.16289 26.7857 6.48943 26.8452 5.83175 26.6865C4.91535 26.4653 3.84555 26.065 3.07186 25.5294C2.73521 25.2963 2.22974 25.1037 1.96556 24.7514C1.88849 24.6487 1.78965 24.4201 1.78965 24.298C1.78965 24.0067 1.55102 24.0803 1.93038 24.3332" stroke="#00ADB5" stroke-opacity="0.2" stroke-width="1.28667" stroke-linecap="round" stroke-linejoin="round"/>
<path d="M28.5988 36.1546C29.4552 36.0595 30.587 36.0758 30.2329 34.974C30.1192 34.6204 29.8328 34.5827 29.5292 34.4815C28.6241 34.1798 27.004 34.764 26.6638 35.709C26.0533 37.4048 27.2087 39.2363 29.0249 38.6487C29.519 38.4888 30.3957 38.1396 30.7098 37.6909C31.0869 37.1522 30.5208 37.3113 30.1469 36.7879" stroke="#00ADB5" stroke-opacity="0.2" stroke-width="1.28667" stroke-linecap="round" stroke-linejoin="round"/>
<path d="M25.9954 34.3251C27.3605 33.7774 28.0589 33.5511 29.4394 33.5511C29.9959 33.5511 30.2742 33.5118 30.7646 33.8325C31.5749 34.3624 31.8538 35.3694 31.7693 36.2562C31.698 37.0051 31.4501 38.0316 31.1868 38.7425C30.991 39.2713 30.5062 39.3626 30.0102 39.4618C29.5568 39.5525 28.5684 39.2989 28.2119 39.497C27.8336 39.7072 26.6754 39.7781 26.3824 39.3875C26.113 39.0282 25.824 38.8733 25.628 38.4376C25.4408 38.0215 25.3563 37.624 25.2058 37.2101C24.9991 36.6416 24.6276 35.0894 25.3973 34.7473C25.8485 34.5468 26.0416 34.4267 26.5584 34.4267C26.705 34.4267 26.8307 34.5362 26.9805 34.5362C27.1968 34.5362 26.5635 34.3955 26.3473 34.3955" stroke="#00ADB5" stroke-opacity="0.2" stroke-width="1.28667" stroke-linecap="round" stroke-linejoin="round"/>
<path d="M28.4583 28.6958C29.4508 27.4124 30.3565 26.0889 31.3823 24.8413C31.9334 24.1711 32.6179 23.5946 33.2118 22.9532C34.9124 21.1166 36.6453 19.1066 37.942 16.9604C39.2193 14.8462 40.9625 12.5438 42.8558 10.9559C43.8559 10.1171 44.7496 9.19009 45.6196 8.22336C46.4638 7.2854 46.8526 5.97365 47.6524 4.98264C48.2717 4.2152 52.3258 -1.00748 53.0314 2.16802C53.3087 3.41572 52.0914 4.28859 51.327 5.05301C50.4596 5.92046 49.588 7.02255 48.8486 8.00835C48.1358 8.95871 47.2696 9.79416 46.5774 10.7526C45.6356 12.0566 43.9219 12.9894 43.235 14.4663C42.6683 15.6847 41.7281 16.6639 41.0224 17.7931C40.0444 19.3579 38.8985 20.6649 37.7465 22.0971C36.8337 23.232 35.403 24.1649 34.756 25.459C34.2155 26.5399 33.2574 26.9956 32.3831 27.6951C32.0024 27.9996 31.5398 28.1686 31.2025 28.5903C31.0903 28.7305 30.8894 28.8927 30.7842 28.7349C30.7242 28.6449 30.4954 28.8466 30.5379 28.946C30.688 29.296 30.3231 28.104 30.2878 27.9922" stroke="#00ADB5" stroke-opacity="0.2" stroke-width="1.28667" stroke-linecap="round" stroke-linejoin="round"/>
<path d="M27.8953 29.0477C28.1649 29.1844 29.8655 30.4754 29.8655 29.4347C29.8655 29.1197 30.2702 28.5945 30.4128 28.2736C30.5206 28.031 29.5489 28.2635 29.4042 28.4496C29.2152 28.6926 28.8488 28.8899 29.4433 28.9069C29.9001 28.92 30.2571 28.7236 30.6043 28.4535C30.7041 28.3758 32.0466 28.5883 30.8506 28.5551C30.2146 28.5374 29.5965 28.5551 28.9859 28.5551C28.4581 28.5551 29.5277 28.4144 29.6818 28.4144C29.8048 28.4144 28.7898 29.0181 28.6146 28.8209C28.5719 28.773 28.4979 28.6408 28.6693 28.5551" stroke="#00ADB5" stroke-opacity="0.2" stroke-width="1.28667" stroke-linecap="round" stroke-linejoin="round"/>
<path d="M5.51904 23.8405C5.59819 23.8825 8.11301 25.1991 8.12257 25.0367C8.13414 24.8399 7.99395 24.6685 8.09129 24.4738C8.51676 23.6229 9.06731 24.0309 9.79961 24.3604C10.3709 24.6175 9.50392 21.7709 11.2265 22.9727C12.1165 23.5936 12.3539 23.4947 12.2077 22.4527C12.0969 21.6637 12.3694 21.6615 13.0481 21.7452C13.5095 21.8021 13.8402 21.9028 14.1036 21.4637C14.4232 20.931 14.7834 20.6279 15.4367 20.8578C15.9784 21.0484 16.4594 21.5843 16.8322 20.9008C16.9963 20.6001 16.8579 19.7001 17.3756 19.8727C17.7002 19.9809 18.1277 20.4046 18.4976 20.2714C18.7778 20.1705 18.9931 19.3014 19.3107 19.4387C19.6419 19.582 19.9796 20.2107 20.3974 20.0603C20.5992 19.9877 20.9734 19.3282 20.5773 19.4075" stroke="#00ADB5" stroke-opacity="0.2" stroke-width="1.28667" stroke-linecap="round" stroke-linejoin="round"/>
<path d="M15.4408 22.5742C16.313 23.2838 19.5795 27.0745 20.5384 24.2434C20.7101 23.7364 20.7374 22.7321 21.2186 23.5632C21.6151 24.2482 22.2121 24.7236 22.8604 24.0753C23.29 23.6457 23.4813 22.9164 24.0958 22.6914C24.6595 22.485 25.0735 23.545 25.5422 22.926C25.9201 22.4268 25.7372 21.5683 25.1825 21.2685C25.0005 21.1701 24.9497 21.5091 24.8698 21.589" stroke="#00ADB5" stroke-opacity="0.2" stroke-width="1.28667" stroke-linecap="round" stroke-linejoin="round"/>
<path d="M22.9697 18.2115C24.3287 17.9781 26.0406 17.5028 27.0744 18.7197C27.5536 19.2837 27.5082 20.0039 27.1917 20.643C26.9603 21.1101 26.338 21.3431 25.9407 20.8853C25.6149 20.5099 26.2868 19.8909 26.5271 19.6618C27.3507 18.8765 28.5717 20.1339 28.8296 20.987C29.0451 21.6997 27.0969 23.3508 27.3324 22.6445" stroke="#00ADB5" stroke-opacity="0.2" stroke-width="1.28667" stroke-linecap="round" stroke-linejoin="round"/>
<path d="M45.8386 20.6039C46.2425 20.4651 48.8389 19.629 48.3405 21.0105C48.0847 21.7192 47.1062 22.0995 46.464 22.3318C46.1603 22.4416 45.376 22.4226 45.8855 21.9799C46.3266 21.5967 46.9481 21.4168 47.5273 21.4639C49.7853 21.6475 46.6277 24.2414 45.9793 24.5991C44.7195 25.2942 43.0057 26.0254 41.687 25.1777" stroke="#00ADB5" stroke-opacity="0.2" stroke-width="1.28667" stroke-linecap="round" stroke-linejoin="round"/>
<path d="M31.9767 16.4521C32.5123 17.3236 33.157 18.199 33.6146 19.1143C33.7721 19.4293 33.0906 18.6228 32.9305 18.309C32.8881 18.2259 32.5948 17.3021 32.5669 17.3083C32.2242 17.3844 32.1436 18.9536 32.0509 19.2433C31.6126 20.6132 30.5294 20.0885 29.467 19.9861C28.1808 19.8621 27.6056 21.1308 26.8947 21.9407C26.3259 22.5886 26.1024 22.7875 26.4882 23.5591C26.8003 24.1833 26.9301 24.7887 26.4882 25.3534C26.1433 25.794 25.7116 26.0725 25.2958 26.4362C24.915 26.7695 25.4612 26.7146 25.3897 26.5144C25.1945 25.9679 23.9899 26.0818 23.5953 26.1079C22.131 26.2047 20.6392 25.8374 19.2014 25.928C18.4376 25.9762 17.7186 26.4022 16.9614 26.5144C16.1925 26.6283 17.2089 27.2958 17.497 27.4878C17.9927 27.8183 16.5265 26.7849 15.9881 26.53C15.0849 26.1026 14.2507 25.7716 13.7833 24.8256C13.3147 23.8774 12.9022 23.2309 12.1101 22.5349C11.8371 22.2949 11.8048 21.9299 11.9381 21.6045C12.2471 20.8507 12.9322 20.2371 13.6113 19.8297" stroke="#00ADB5" stroke-opacity="0.2" stroke-width="1.28667" stroke-linecap="round" stroke-linejoin="round"/>
<path d="M31.8356 19.2669C30.0717 18.0359 28.6163 17.5057 26.5425 17.2263C25.8135 17.128 25.036 16.6233 24.5606 16.0653C24.1387 15.57 24.3779 15.701 23.8804 16.3741C23.2009 17.2934 22.6963 16.4682 21.8281 16.7103C20.4974 17.0813 19.3553 18.3183 18.0049 18.5476C17.6351 18.6104 17.7242 17.9917 17.2621 18.2583C16.484 18.7073 15.8888 19.132 14.9792 19.2747C14.429 19.361 13.3865 19.7233 13.4702 20.3927" stroke="#00ADB5" stroke-opacity="0.2" stroke-width="1.28667" stroke-linecap="round" stroke-linejoin="round"/>
<path d="M43.798 19.2668C45.5 19.4309 47.2245 19.4098 48.919 19.5913C49.5157 19.6552 49.8206 19.8964 50.2403 20.2871C50.6189 20.6396 51.2099 21.4694 51.7532 21.5146C52.5365 21.5799 52.9413 21.2545 53.6726 21.026C54.1129 20.8884 55.5177 21.026 55.0565 21.026" stroke="#00ADB5" stroke-opacity="0.2" stroke-width="1.28667" stroke-linecap="round" stroke-linejoin="round"/>
<path d="M42.5315 21.1667C40.7019 22.3724 39.7245 24.2009 37.7662 25.2988C37.3784 25.5161 36.1914 25.937 36.2807 26.6513C36.3453 27.1683 40.3094 25.5498 40.9131 25.2479" stroke="#00ADB5" stroke-opacity="0.2" stroke-width="1.28667" stroke-linecap="round" stroke-linejoin="round"/>
<path d="M49.3568 22.8555C50.3517 23.596 51.2094 24.6544 52.4529 24.2784C52.7894 24.1767 53.4935 24.137 53.7195 23.911" stroke="#00ADB5" stroke-opacity="0.2" stroke-width="1.28667" stroke-linecap="round" stroke-linejoin="round"/>
</svg>
